<svg width="147" height="31" viewBox="0 0 147 31" fill="none" xmlns="http://www.w3.org/2000/svg">
<path d="M144.226 24.988C141.255 24.988 139.472 23.2485 139.472 20.4714V12.552H137.018V9.43924H139.533V5.65504L143.19 3V9.43924H147V12.552H143.19V19.8153C143.19 21.2801 143.906 21.7074 144.882 21.7074C145.659 21.7074 146.497 21.4022 147 21.158V24.5302C146.436 24.7439 145.339 24.988 144.226 24.988Z" fill="#335EEA"/>
<path d="M129.566 24.988C126.366 24.988 123.928 23.0654 123.181 20.7155L126.138 19.4033C126.549 20.5019 127.357 21.9057 129.384 21.9057C131.106 21.9057 131.852 20.8986 131.852 20.0899C131.852 17.5264 124.202 19.2507 124.202 13.8643C124.202 10.6447 126.915 9.1188 129.856 9.1188C132.477 9.1188 134.473 10.37 135.632 12.43L132.751 14.0016C132.233 13.0556 131.38 12.0638 129.734 12.0638C128.515 12.0638 127.768 12.6589 127.768 13.376C127.768 15.6801 135.51 14.3068 135.51 19.9068C135.51 23.4316 132.447 24.988 129.566 24.988Z" fill="#335EEA"/>
<path d="M115.044 24.988C109.801 24.988 107.333 21.2191 107.333 17.1144C107.333 13.1471 109.649 9.1188 114.8 9.1188C120.133 9.1188 121.855 13.4065 121.855 16.8093C121.855 17.4349 121.795 18.0605 121.718 18.2741H111.264C111.584 20.273 112.682 21.6158 115.074 21.6158C116.446 21.6158 117.665 21.1886 118.731 19.9984L121.292 22.2414C119.631 24.0877 117.604 24.988 115.044 24.988ZM111.264 15.5886H118.198C118.198 15.2529 118.168 14.9324 118.076 14.6273C117.695 13.0556 116.385 12.2469 114.769 12.2469C112.575 12.2469 111.615 13.6812 111.264 15.5886Z" fill="#335EEA"/>
<path d="M90.783 31V9.43924H94.6232V10.9651C95.69 9.65286 97.3815 9.1188 98.9664 9.1188C103.188 9.1188 105.489 12.842 105.489 17.0534C105.489 21.3106 103.188 24.988 98.9054 24.988C97.2748 24.988 95.69 24.4692 94.6232 23.157V31H90.783ZM98.0368 21.6158C100.597 21.6158 101.74 19.5864 101.74 17.0534C101.74 14.5204 100.597 12.552 98.0368 12.552C95.4766 12.552 94.288 14.4899 94.288 17.0534C94.288 19.6169 95.4766 21.6158 98.0368 21.6158Z" fill="#335EEA"/>
<path d="M64.2365 24.6828L64.206 9.43924H67.8024V11.3466C68.793 9.65286 70.3626 9.1188 71.917 9.1188C73.639 9.1188 75.5134 9.77494 76.4125 11.8044C77.6316 9.83597 79.4451 9.1188 81.289 9.1188C85.1597 9.1188 86.7446 12.3079 86.7446 15.5275V24.6828H83.0263V16.0005C83.0263 14.1237 82.4624 12.5826 80.5423 12.5826C78.5307 12.5826 77.3573 14.2763 77.3573 16.3057V24.6828H73.639V15.9395C73.639 14.0932 73.0751 12.5826 71.1703 12.5826C69.1435 12.5826 67.9548 14.2763 67.9548 16.3057V24.6828H64.2365Z" fill="#335EEA"/>
<path d="M54.2701 24.988C49.0279 24.988 46.5591 21.2191 46.5591 17.1144C46.5591 13.1471 48.8755 9.1188 54.0263 9.1188C59.36 9.1188 61.082 13.4065 61.082 16.8093C61.082 17.4349 61.021 18.0605 60.9448 18.2741H50.4908C50.8108 20.273 51.908 21.6158 54.3006 21.6158C55.6721 21.6158 56.8912 21.1886 57.958 19.9984L60.5181 22.2414C58.8571 24.0877 56.8303 24.988 54.2701 24.988ZM50.4908 15.5886H57.4246C57.4246 15.2529 57.3941 14.9324 57.3027 14.6273C56.9217 13.0556 55.6111 12.2469 53.9958 12.2469C51.8014 12.2469 50.8413 13.6812 50.4908 15.5886Z" fill="#335EEA"/>
<path d="M37.7509 24.6828V6.58583H31V3.12207H48.3573V6.58583H41.6217V24.6828H37.7509Z" fill="#335EEA"/>
<path d="M14 0C6.26906 0 0 6.26904 0 14C0 21.7309 6.26906 28 14 28C21.731 28 28 21.7309 28 14C28 6.26904 21.731 0 14 0ZM18.9516 13.6316L10.7903 22.6859C10.4425 23.072 9.82063 22.68 10.0181 22.1996L12.6383 15.8038H9.68505C8.93937 15.8038 8.54737 14.9225 9.04842 14.3684L17.2097 5.3141C17.5575 4.92799 18.1794 5.32 17.9819 5.80042L15.3617 12.1962H18.315C19.0606 12.1962 19.4526 13.0775 18.9516 13.6316Z" fill="#335EEA"/>
</svg>
